<?xml version="1.0" encoding="UTF-8" standalone="no"?>
<svg
   xmlns:dc="http://purl.org/dc/elements/1.1/"
   xmlns:cc="http://creativecommons.org/ns#"
   xmlns:rdf="http://www.w3.org/1999/02/22-rdf-syntax-ns#"
   xmlns:svg="http://www.w3.org/2000/svg"
   xmlns="http://www.w3.org/2000/svg"
   xmlns:sodipodi="http://sodipodi.sourceforge.net/DTD/sodipodi-0.dtd"
   xmlns:inkscape="http://www.inkscape.org/namespaces/inkscape"
   version="1.1"
   id="svg67"
   width="500"
   height="500"
   viewBox="0 0 1757 2109"
   sodipodi:docname="logo.svg"
   inkscape:version="0.92.2 5c3e80d, 2017-08-06">
  <sodipodi:namedview
     pagecolor="#ffffff"
     bordercolor="#666666"
     borderopacity="1"
     objecttolerance="10"
     gridtolerance="10"
     guidetolerance="10"
     inkscape:pageopacity="0"
     inkscape:pageshadow="2"
     inkscape:window-width="1436"
     inkscape:window-height="856"
     id="namedview52"
     showgrid="false"
     inkscape:zoom="0.44760549"
     inkscape:cx="528.70862"
     inkscape:cy="19.608094"
     inkscape:window-x="4"
     inkscape:window-y="0"
     inkscape:window-maximized="1"
     inkscape:current-layer="svg67" />
  <metadata
     id="metadata73">
    <rdf:RDF>
      <cc:Work
         rdf:about="">
        <dc:format>image/svg+xml</dc:format>
        <dc:type
           rdf:resource="http://purl.org/dc/dcmitype/StillImage" />
        <dc:title />
      </cc:Work>
    </rdf:RDF>
  </metadata>
  <defs
     id="defs71" />
  <g
     id="layer9" />
  <g
     transform="matrix(2.115123,0,0,2.115123,-43.89908,-1.029657)"
     id="layer1"
     style="display:inline;stroke-width:5;stroke-miterlimit:4;stroke-dasharray:none">
    <path
       style="fill:none;stroke:#241c1c;stroke-width:5;stroke-linecap:butt;stroke-linejoin:miter;stroke-miterlimit:4;stroke-dasharray:none;stroke-dashoffset:8.80000019;stroke-opacity:1"
       d="m 335.96978,189.54451 c 0,0 -99.12203,50.55224 -89.20983,194.27919 9.9122,143.72694 53.5259,153.63915 101.10447,171.48112 47.57858,17.84197 136.78841,-34.69274 142.73573,-106.06058 5.94732,-71.36787 22.7981,-141.74451 -39.64881,-224.0158 C 388.50446,142.95716 336.961,190.53573 335.96978,189.54451 Z"
       id="path3767"
       inkscape:connector-curvature="0" />
  </g>
  <g
     transform="matrix(2.115123,0,0,2.115123,-43.89908,-1.029657)"
     id="layer2"
     style="display:inline;stroke-width:5;stroke-miterlimit:4;stroke-dasharray:none">
    <path
       style="opacity:1;vector-effect:none;fill:#ffffff;fill-opacity:1;stroke:#000000;stroke-width:5;stroke-linecap:butt;stroke-linejoin:miter;stroke-miterlimit:4;stroke-dasharray:none;stroke-dashoffset:0;stroke-opacity:1"
       d="m 370.32974,346.58246 c 0,0 -12.7914,1.05136 -15.41977,18.57382 -2.62837,17.52247 -19.97561,37.84853 -42.22914,38.72465 -22.25353,0.87612 -49.58858,-11.74005 -56.59757,-36.62196 -7.00899,-24.8819 -3.32926,-20.50128 -7.00899,-28.38639 -3.67971,-7.88511 -12.96662,-9.28691 -13.31707,-11.3896 -0.35044,-2.1027 0.87612,-9.46213 0.87612,-9.46213 0,0 3.32928,-4.20539 24.70668,-4.38062 21.37741,-0.17522 30.48909,-1.4018 48.18679,-0.17522 17.69769,1.22657 31.54043,2.80359 41.35301,12.61617 9.81259,9.81258 6.48332,6.65854 19.09949,7.18421 12.61618,0.52568 9.90979,5.02679 26.2837,-7.00898 15.95653,-11.72897 51.32802,-6.84657 51.34082,-6.83377 0,0 52.90856,4.43223 52.41292,6.91028 -0.4956,2.47805 -0.4956,10.90342 -0.4956,10.90342 0,0 -8.92098,0.49562 -12.39024,16.85075 -3.64004,16.35514 -4.96596,45.10052 -36.17955,53.5259 -32.61081,8.80252 -66.21101,-10.99098 -66.90738,-37.91418 -0.67941,-26.26734 -13.73747,-22.6912 -13.71422,-23.11635 z"
       id="path4583"
       inkscape:connector-curvature="0" />
    <g
       id="layer3"
       style="display:inline;stroke-width:5;stroke-miterlimit:4;stroke-dasharray:none" />
  </g>
  <path
     style="color:#000000;font-style:normal;font-variant:normal;font-weight:normal;font-stretch:normal;font-size:medium;line-height:normal;font-family:sans-serif;font-variant-ligatures:normal;font-variant-position:normal;font-variant-caps:normal;font-variant-numeric:normal;font-variant-alternates:normal;font-feature-settings:normal;text-indent:0;text-align:start;text-decoration:none;text-decoration-line:none;text-decoration-style:solid;text-decoration-color:#000000;letter-spacing:normal;word-spacing:normal;text-transform:none;writing-mode:lr-tb;direction:ltr;text-orientation:mixed;dominant-baseline:auto;baseline-shift:baseline;text-anchor:start;white-space:normal;shape-padding:0;clip-rule:nonzero;display:inline;overflow:visible;visibility:visible;opacity:1;isolation:auto;mix-blend-mode:normal;color-interpolation:sRGB;color-interpolation-filters:linearRGB;solid-color:#000000;solid-opacity:1;vector-effect:none;fill:#000000;fill-opacity:1;fill-rule:nonzero;stroke:none;stroke-width:6.34536934;stroke-linecap:butt;stroke-linejoin:miter;stroke-miterlimit:4;stroke-dasharray:none;stroke-dashoffset:0;stroke-opacity:1;color-rendering:auto;image-rendering:auto;shape-rendering:auto;text-rendering:auto;enable-background:accumulate"
     d="m 583.93871,670.83233 c -24.15843,-0.26259 -38.63488,0.0532 -49.62302,3.34271 -10.98816,3.28943 -18.03325,9.75941 -26.29805,20.42365 -9.0525,11.68066 -9.98236,29.32943 -9.11177,44.06232 0.82381,13.94144 3.36353,24.72978 3.64964,25.92837 -0.007,0.30213 0.0728,0.47984 0.0919,0.64299 0.0369,0.3165 0.0883,0.53021 0.14339,0.75055 0.11012,0.44066 0.24887,0.87712 0.42568,1.39578 0.35363,1.03732 0.85583,2.35721 1.46747,3.90505 1.2233,3.09568 2.88317,7.07239 4.55925,11.01614 3.35219,7.88749 6.76383,15.63139 6.76383,15.63139 l 0.16579,0.37416 0.25317,0.32038 c 0,0 43.23513,54.97585 101.00256,45.71126 57.18318,-9.17088 92.50837,-60.78569 83.34582,-117.37778 -4.62561,-28.56989 -22.32607,-43.06493 -44.34237,-49.70369 -22.01629,-6.63876 -48.44233,-6.16188 -72.49323,-6.42328 z m -0.0695,6.34486 c 24.16983,0.2627 50.16009,-0.0482 70.73003,6.15444 20.56993,6.20263 35.62606,18.17797 39.91082,44.64259 8.65819,53.47697 -24.15346,101.44884 -78.08756,110.09865 -52.94061,8.49048 -94.16824,-42.36381 -94.80108,-43.14822 -0.18734,-0.42537 -3.30282,-7.4938 -6.53754,-15.10491 -1.6653,-3.91832 -3.3143,-7.87084 -4.49876,-10.86827 -0.59223,-1.49871 -1.07087,-2.76601 -1.36217,-3.62052 -0.039,-0.11436 -0.042,-0.13863 -0.074,-0.23748 l 0.0179,-0.0358 -0.27781,-1.13141 c 0,0 -2.81677,-11.54464 -3.64964,-25.63935 -0.83287,-14.09471 0.59864,-30.51617 7.79441,-39.80105 7.98352,-10.30127 13.51668,-15.36334 23.10096,-18.23252 9.58428,-2.86917 23.67212,-3.33765 47.73436,-3.0761 z"
     id="path4586"
     inkscape:connector-curvature="0" />
  <path
     style="color:#000000;font-style:normal;font-variant:normal;font-weight:normal;font-stretch:normal;font-size:medium;line-height:normal;font-family:sans-serif;font-variant-ligatures:normal;font-variant-position:normal;font-variant-caps:normal;font-variant-numeric:normal;font-variant-alternates:normal;font-feature-settings:normal;text-indent:0;text-align:start;text-decoration:none;text-decoration-line:none;text-decoration-style:solid;text-decoration-color:#000000;letter-spacing:normal;word-spacing:normal;text-transform:none;writing-mode:lr-tb;direction:ltr;text-orientation:mixed;dominant-baseline:auto;baseline-shift:baseline;text-anchor:start;white-space:normal;shape-padding:0;clip-rule:nonzero;display:inline;overflow:visible;visibility:visible;opacity:1;isolation:auto;mix-blend-mode:normal;color-interpolation:sRGB;color-interpolation-filters:linearRGB;solid-color:#000000;solid-opacity:1;vector-effect:none;fill:#000000;fill-opacity:1;fill-rule:nonzero;stroke:none;stroke-width:6.34536934;stroke-linecap:butt;stroke-linejoin:miter;stroke-miterlimit:4;stroke-dasharray:none;stroke-dashoffset:0;stroke-opacity:1;color-rendering:auto;image-rendering:auto;shape-rendering:auto;text-rendering:auto;enable-background:accumulate"
     d="m 895.2808,682.15765 c -24.11455,0.26368 -50.60993,-0.21526 -72.68595,6.48153 -22.07602,6.69679 -39.81674,21.31074 -44.45216,50.11369 -9.18331,57.06122 26.21908,109.11005 83.55866,118.36132 57.92715,9.34605 101.26915,-46.10558 101.26915,-46.10557 l 0.2532,-0.31815 0.1635,-0.37414 c 0,0 3.4208,-7.81017 6.7818,-15.76583 1.6805,-3.97784 3.3464,-7.99051 4.5727,-11.11248 0.6131,-1.56099 1.1133,-2.89125 1.4675,-3.93641 0.177,-0.52259 0.318,-0.96459 0.4279,-1.40698 0.055,-0.22121 0.1045,-0.43455 0.1411,-0.75055 0.019,-0.16316 0.099,-0.33914 0.092,-0.64076 0.2832,-1.19329 2.8344,-12.09008 3.6608,-26.15913 0.8727,-14.85613 -0.058,-32.64378 -9.1274,-44.41631 -8.2857,-10.75537 -15.3467,-17.27777 -26.3653,-20.59616 -11.0185,-3.31839 -25.5348,-3.63893 -49.7574,-3.37407 z m 0.069,6.34487 c 24.1258,-0.26381 38.2492,0.21153 47.8575,3.10521 9.6084,2.8937 15.1624,7.99944 23.1682,18.3916 7.2222,9.37499 8.6545,25.95123 7.8191,40.17295 -0.8354,14.22171 -3.6586,25.87236 -3.6586,25.87236 l -0.2734,1.12469 0.018,0.0358 c -0.034,0.10622 -0.038,0.13532 -0.081,0.2599 -0.2925,0.86306 -0.7727,2.14211 -1.3667,3.65412 -1.1878,3.02404 -2.8401,7.00988 -4.5099,10.96238 -3.2442,7.67923 -6.3713,14.8157 -6.5577,15.24155 -0.6281,0.78313 -41.9752,52.09071 -95.05427,43.52687 -54.07245,-8.72416 -86.98962,-57.12561 -78.30488,-111.08893 4.29848,-26.70929 19.40641,-38.79427 40.02956,-45.05034 20.62315,-6.25607 46.6796,-5.94321 70.91379,-6.2082 z"
     id="path4586-7"
     inkscape:connector-curvature="0" />
  <g
     transform="matrix(2.115123,0,0,2.115123,-43.89908,-1.029657)"
     id="layer4"
     style="display:inline;stroke-width:2;stroke-miterlimit:4;stroke-dasharray:none">
    <path
       style="opacity:1;vector-effect:none;fill:none;fill-opacity:1;stroke:#202020;stroke-width:2;stroke-linecap:butt;stroke-linejoin:miter;stroke-miterlimit:4;stroke-dasharray:none;stroke-dashoffset:0;stroke-opacity:1"
       d="m 336.4226,361.11944 c 0,0 -6.56459,-30.1923 -33.2208,-29.00362 -26.6562,1.18867 -26.6562,14.73955 -26.6562,14.73955 0,0 5.76888,18.06783 28.84441,18.06783 23.07551,0 15.71521,-7.36977 31.03259,-3.80376 z"
       id="path4608"
       inkscape:connector-curvature="0" />
    <ellipse
       style="fill:#270000;fill-opacity:1;stroke:#0a0000;stroke-width:2;stroke-miterlimit:4;stroke-dasharray:none;stroke-dashoffset:8.80000019;stroke-opacity:1"
       id="path4610"
       cx="309.66693"
       cy="348.99496"
       rx="12.830784"
       ry="12.362201" />
    <path
       style="opacity:1;vector-effect:none;fill:#0d0000;fill-opacity:1;stroke:#000000;stroke-width:2;stroke-linecap:butt;stroke-linejoin:miter;stroke-miterlimit:4;stroke-dasharray:none;stroke-dashoffset:0;stroke-opacity:1"
       d="m 268.19067,346.85537 c 0,0 11.33884,8.08298 16.11308,0.95094 4.77424,-7.13204 15.11844,-12.36221 22.27981,-11.88674 7.16137,0.47547 11.85121,1.38149 25.66157,20.44518 13.14567,18.14617 -0.99464,-18.78104 -15.31737,-22.34705 -14.32274,-3.56602 -17.10771,-3.56603 -30.03796,-0.23774 -12.93024,3.32829 -10.3442,11.17353 -18.69913,13.07541 z"
       id="path4612"
       inkscape:connector-curvature="0" />
    <path
       style="display:inline;opacity:1;vector-effect:none;fill:none;fill-opacity:1;stroke:#202020;stroke-width:2;stroke-linecap:butt;stroke-linejoin:miter;stroke-miterlimit:4;stroke-dasharray:none;stroke-dashoffset:0;stroke-opacity:1"
       d="m 400.3469,363.12561 c 0,0 6.56459,-30.1923 33.2208,-29.00362 26.65621,1.18867 26.65621,14.73955 26.65621,14.73955 0,0 -5.76889,18.06783 -28.84441,18.06783 -23.07552,0 -15.71522,-7.36978 -31.0326,-3.80376 z"
       id="path4608-6"
       inkscape:connector-curvature="0" />
    <ellipse
       style="display:inline;fill:#270000;fill-opacity:1;stroke:#0a0000;stroke-width:2;stroke-miterlimit:4;stroke-dasharray:none;stroke-dashoffset:8.80000019;stroke-opacity:1"
       id="path4610-3"
       cx="-427.10257"
       cy="351.00113"
       rx="12.830784"
       ry="12.362201"
       transform="scale(-1,1)" />
    <path
       style="display:inline;opacity:1;vector-effect:none;fill:#0d0000;fill-opacity:1;stroke:#000000;stroke-width:2;stroke-linecap:butt;stroke-linejoin:miter;stroke-miterlimit:4;stroke-dasharray:none;stroke-dashoffset:0;stroke-opacity:1"
       d="m 468.57882,348.86154 c 0,0 -11.33883,8.08297 -16.11306,0.95094 -4.77426,-7.13205 -15.11845,-12.36221 -22.27982,-11.88674 -7.16137,0.47547 -11.85121,1.38149 -25.66157,20.44518 -13.14568,18.14617 0.99464,-18.78104 15.31737,-22.34706 14.32274,-3.56601 17.10772,-3.56602 30.03796,-0.23773 12.93023,3.32829 10.34421,11.17353 18.69912,13.07541 z"
       id="path4612-1"
       inkscape:connector-curvature="0" />
  </g>
  <g
     transform="matrix(2.115123,0,0,2.115123,-43.89908,-1.029657)"
     id="layer5"
     style="display:inline">
    <path
       style="opacity:1;vector-effect:none;fill:none;fill-opacity:1;stroke:#050202;stroke-width:3;stroke-linecap:butt;stroke-linejoin:miter;stroke-miterlimit:4;stroke-dasharray:none;stroke-dashoffset:0;stroke-opacity:1"
       d="m 314.01407,463.79515 c 0,0 11.09084,11.11418 22.18168,18.7186 9.64422,9.65181 31.82591,11.11424 31.82591,11.11424 0,0 23.14611,2.92473 36.4069,-8.77439 13.50189,-9.65181 19.52952,-12.28412 19.52952,-12.28412 l -27.7271,-8.77433 -12.53749,-7.01949 c 0,0 -11.01753,-5.20987 -13.9841,4.38718 -1.54399,4.99488 -0.0197,-8.08272 -12.29637,-6.14205 -7.94752,1.25632 -34.71916,10.52923 -43.39895,8.77436 z"
       id="path4654"
       inkscape:connector-curvature="0" />
    <path
       style="opacity:1;vector-effect:none;fill:none;fill-opacity:1;stroke:#000000;stroke-width:3;stroke-linecap:butt;stroke-linejoin:miter;stroke-miterlimit:4;stroke-dasharray:none;stroke-dashoffset:0;stroke-opacity:1"
       d="m 314.01407,463.79515 c 0,0 28.08877,11.55289 55.09256,13.01527 27.00379,1.46239 54.85145,-4.24094 54.85145,-4.24094 v 0"
       id="path4656"
       inkscape:connector-curvature="0" />
  </g>
  <g
     transform="matrix(2.115123,0,0,2.115123,-43.89908,-1.029657)"
     id="layer6"
     style="display:inline">
    <path
       style="opacity:1;vector-effect:none;fill:#333333;fill-opacity:1;stroke:none;stroke-width:1.19992602;stroke-linecap:butt;stroke-linejoin:miter;stroke-miterlimit:4;stroke-dasharray:none;stroke-dashoffset:0;stroke-opacity:1"
       id="path4661"
       d="m 352.23671,426.1974 c 0.14192,-0.37292 0.31614,-0.73598 0.43173,-1.1154 0.0616,-0.28368 0.2093,-0.54608 0.29122,-0.82513 0.0311,-0.30882 0.1389,-0.60269 0.22916,-0.9021 0.0578,-0.3152 0.23896,-0.58915 0.41248,-0.86952 0.099,-0.23628 0.28767,-0.41198 0.47993,-0.60052 1.14323,-0.93863 2.71879,-1.69707 4.23795,-2.06891 0.26257,-0.0249 0.52736,-0.0316 0.79163,-0.0266 0.29107,0.004 0.58201,0.008 0.87314,0.007 0.31129,0.003 0.62259,4.3e-4 0.93388,10e-4 0.24605,-0.004 0.4921,-10e-4 0.73816,-0.002 0.23753,0.001 0.4751,-10e-4 0.71269,2.6e-4 0.24363,4.3e-4 0.47491,-0.0308 0.69255,0.0638 0.27713,0.0806 0.51293,0.23055 0.74044,0.38071 0.24363,0.14292 0.49742,0.28063 0.71141,0.45305 0.16802,0.1597 0.32016,0.33359 0.45134,0.51534 0.1279,0.22876 0.17217,0.48104 0.20368,0.72871 -0.01,0.19538 0.03,0.36384 0.15491,0.5313 0.13262,0.19105 0.32204,0.34859 0.47594,0.52626 0.18816,0.15509 0.36123,0.31778 0.57803,0.45099 0.1721,0.1539 0.38735,0.27371 0.58378,0.40917 0.15515,0.0789 0.26223,0.21312 0.40135,0.30207 0.0316,0.0202 0.0791,0.0157 0.1152,0.0303 0.10085,0.0408 0.22719,0.12498 0.31343,0.17829 0.28305,0.16318 0.57907,0.31797 0.82835,0.51463 0.24707,0.0461 0.43437,0.15672 0.62484,0.30099 0.25589,0.15898 0.53755,0.25488 0.84856,0.31959 0.0508,0.006 0.10474,0.001 0.15244,0.0171 0.0546,0.0174 0.094,0.0576 0.14676,0.0783 0.14749,0.0577 0.0699,-0.089 0.30684,0.0296 0.25424,0.061 0.46932,0.18769 0.7157,0.26484 0.32422,0.0403 0.61763,0.11184 0.90565,0.23974 0.22046,0.0674 0.46449,0.0644 0.69766,0.0673 0.2254,-7.1e-4 0.45084,-2.8e-4 0.67623,-0.002 0.23483,-0.002 0.46974,-0.003 0.7046,-7e-4 0.057,-0.0246 0.13074,0.018 0.188,-0.003 0.11924,-0.0427 0.17021,-0.10954 0.312,-0.14167 -1.12381,0.51291 -2.24763,1.02581 -3.37146,1.53873 1.2897,-0.89304 2.92928,-1.50427 4.35202,-2.17445 0.28427,-0.18749 0.67674,-0.20224 0.96959,-0.36696 1.55128,-0.5111 -4.29069,1.92707 -3.1896,1.48787 0.92801,-0.37017 2.54826,-1.71838 4.0766,-1.68373 1.05566,-1.15059 -4.59343,2.404 -3.03824,1.27918 0.17451,-0.1043 0.33438,-0.20429 0.44062,-0.35763 0.17372,-0.0889 0.1995,-0.27627 0.33226,-0.40786 0.0764,-0.15226 0.28598,-0.23725 0.30829,-0.39355 0.13972,-0.034 0.10443,-0.0951 0.17157,-0.18011 0.022,-0.0279 0.0685,-0.0377 0.0953,-0.0628 0.0102,-0.01 0.12477,-0.17561 0.12663,-0.17829 0.11771,-0.0356 0.17372,-0.12496 0.26187,-0.18661 0.0253,-0.0585 0.099,2.7e-4 0.13371,-0.0234 0.031,-0.0212 0.0381,-0.0577 0.0571,-0.0866 0.0361,-0.0782 0.0472,-0.14271 0.13286,-0.19574 0.0559,-0.0346 0.14157,-0.0293 0.19223,-0.0728 0.0317,-0.0273 0.0442,-0.0658 0.0664,-0.0987 1.19076,-0.56186 2.38152,-1.1237 3.57228,-1.68555 -1.12889,0.52406 -2.26084,1.04389 -3.38668,1.57218 -0.0539,0.0253 0.10172,-0.0584 0.15566,-0.0836 1.19835,-0.56027 2.4147,-1.09548 3.60992,-1.66008 1.0775,-0.50899 -4.33193,2.00539 -3.25708,1.49277 0.0818,-0.0167 0.0974,-0.0967 0.16312,-0.12668 11.94184,-5.44167 -8.12794,3.77397 3.89905,-1.77562 1.58049,-0.30106 -0.72237,0.40893 -3.16842,1.5092 -0.0328,0.0147 0.0631,-0.0329 0.0963,-0.047 0.15677,-0.0668 0.0673,0.004 0.18238,-0.1301 1.2035,-0.54606 2.40005,-1.10215 3.61048,-1.63819 0.0294,-0.013 0.0696,0.005 0.1006,-0.005 0.0322,-0.0109 0.10936,-0.0691 0.079,-0.0553 -1.13507,0.51892 -4.44259,2.198 -3.39496,1.57124 0.0956,-0.0572 9.17707,-4.30292 0.19568,-0.10102 1.06317,-0.85027 0.12835,-0.11331 3.66948,-1.76542 0.19588,-0.0914 0.0446,0.032 0.26512,-0.0406 0.0868,-0.0286 0.15406,-0.0881 0.24033,-0.1178 -1.12855,0.52368 -2.24955,1.05801 -3.38562,1.57104 -0.0366,0.0166 0.0435,-0.0615 0.0799,-0.0782 4.09666,-1.88679 2.26148,-1.59246 4.00913,-1.6334 0.0331,0.001 0.0681,0.0138 0.0992,0.005 0.10471,-0.0303 0.0651,-0.0734 0.13829,-0.1233 0.081,-0.0552 0.23466,-0.0481 0.33318,-0.0636 0.23458,-0.0292 0.46944,-0.0252 0.70718,-0.0222 0.23246,-10e-4 0.4648,10e-4 0.69726,10e-4 0.2491,-7e-4 0.49796,4.3e-4 0.74707,0.004 0.38638,-0.0308 0.64549,0.0973 0.86472,0.34641 0.16042,0.20204 0.23327,0.43303 0.26798,0.6684 0.0231,0.25016 0.043,0.49915 0.0627,0.74947 0.10098,0.34565 0.30497,0.65874 0.49513,0.97767 0.16829,0.23394 0.30205,0.48583 0.51162,0.69947 0.11375,0.11056 0.16045,0.26806 0.27092,0.37692 0.009,0.009 0.0214,-0.0147 0.0322,-0.0221 0.0342,0.045 0.0683,0.0899 0.10257,0.13493 0.14397,0.17681 0.32443,0.33391 0.51471,0.47893 0.26402,0.15035 0.24055,0.22293 0.55626,0.26055 0.0494,0.0592 0.39962,0.24435 0.46686,0.24463 0.0364,0.0462 0.0728,0.0924 0.1092,0.13861 0,0 -3.52507,1.66637 -3.52507,1.66637 v 0 c -10e-4,10e-4 -0.003,0.004 -0.004,0.006 -0.0523,-0.033 -0.46414,-0.24792 -0.42924,-0.1987 -0.25893,-0.0946 -0.43764,-0.26936 -0.6586,-0.4084 -0.18764,-0.17567 -0.41541,-0.32969 -0.55737,-0.53353 -0.13858,-0.15382 -0.28989,-0.29123 -0.38791,-0.46921 -0.2129,-0.24062 -0.35474,-0.51149 -0.53083,-0.77016 -0.19319,-0.35569 -0.44411,-0.68482 -0.55977,-1.06413 -0.0537,-0.25235 -0.0564,-0.50076 -0.0951,-0.75095 -0.008,-0.17605 -0.0264,-0.35468 -0.14547,-0.50789 -0.16946,-0.14865 -0.42838,-0.091 -0.65507,-0.098 -0.25308,0.003 -0.50591,0.004 -0.75896,0.002 -0.22929,-7.1e-4 -0.45856,-7.1e-4 -0.68778,0.004 -0.21986,0.0107 -0.4396,0.0306 -0.64739,0.092 -0.22308,0.0708 -0.36967,0.166 -0.62971,0.12654 -0.0929,0.007 -0.10511,0.004 -0.2052,0.0308 -0.0341,0.009 -0.13033,0.048 -0.0993,0.0335 8.49919,-3.95965 0.26547,-0.13771 -0.2937,0.16723 -0.40514,0.16398 0.12975,-0.0417 -0.28076,0.0823 -0.05,0.0151 -0.16197,0.077 -0.20805,0.10135 3.35606,-1.58795 4.42298,-2.22341 3.28423,-1.54905 -11.79919,5.66993 1.95707,-0.94805 -0.19408,0.11475 -1.18398,0.58497 -2.38523,1.14716 -3.58857,1.70595 -0.0583,0.0271 -0.14482,-0.003 -0.19217,0.0494 1.13792,-0.52525 2.27583,-1.0505 3.41374,-1.57576 -0.19695,0.009 -0.12295,0.0966 -0.28009,0.16849 -1.34797,0.61659 -2.51964,1.19984 -3.83359,1.72868 8.463,-3.94918 0.31691,-0.15668 -0.29753,0.11576 -1.14537,0.50785 2.27757,-1.03485 3.40698,-1.56535 0.0647,-0.0304 -0.32316,0.055 -0.20027,0.0821 -1.03016,0.90307 -0.61847,0.56234 -3.72482,1.76891 -1.17913,0.45799 2.26703,-1.05459 3.39748,-1.58614 0.0273,-0.0128 -0.0642,0.0126 -0.0875,0.0298 -0.0291,0.0215 -0.0286,0.0648 -0.0625,0.081 -1.19186,0.57109 -2.40209,1.11697 -3.60313,1.67546 1.13287,-0.5357 2.27247,-1.06229 3.39862,-1.60709 0.0324,-0.0157 -0.0858,-0.006 -0.11145,0.0169 -0.12228,0.10637 0.0309,0.12466 -0.12311,0.20064 -0.0233,0.0115 -0.20657,0.0172 -0.22806,0.0183 -0.16119,0.29082 0.0724,-0.15978 -0.0518,0.2039 -0.0372,0.10878 -0.3041,0.097 -0.3236,0.235 -0.22712,0.023 -0.10645,0.0853 -0.24154,0.19594 -0.11241,0.0921 -0.0622,-0.11182 -0.15595,0.19014 -0.0255,-0.008 -0.0527,-0.0366 -0.0764,-0.0253 -0.0569,0.027 -0.0129,0.11261 -0.0558,0.15307 -0.0237,0.0224 -0.0713,0.0213 -0.0953,0.0435 -0.3037,0.2808 0.18538,-0.0677 -0.14128,0.15368 -0.10463,0.16319 -0.2907,0.2545 -0.29364,0.46008 -0.19698,0.0845 -0.21178,0.30439 -0.41883,0.3959 -1.24452,0.74223 -2.50377,1.94119 -4.03315,1.90486 -0.13585,0.0271 -0.49461,0.16483 -0.34623,0.095 6.86468,-3.22954 1.89924,-0.842 -0.44482,0.19264 -0.33768,0.0916 -0.6455,0.22887 -0.94979,0.37732 1.10456,-0.52169 2.20912,-1.04339 3.31367,-1.56508 -0.0479,0.0255 -0.10031,0.0462 -0.14367,0.0765 -0.14672,0.10243 -0.28253,0.22491 -0.43643,0.31985 -0.043,0.0265 -0.0987,0.036 -0.14802,0.0539 -1.05548,0.49873 -2.62445,1.81789 -4.20373,1.76641 -0.23524,10e-4 -0.47052,0.003 -0.70575,0.002 -0.22936,-7.1e-4 -0.45977,0.005 -0.68805,-0.0162 -0.27669,-0.0221 -0.55066,-0.0616 -0.79499,-0.17536 -0.28857,-0.10133 -0.60355,-0.12492 -0.89051,-0.23138 -0.22425,-0.0912 -0.45407,-0.16891 -0.6967,-0.22305 -0.20107,0.0542 -0.38707,-0.1393 -0.59647,-0.13739 -0.34093,-0.10446 -0.66603,-0.24175 -0.94844,-0.42963 -0.19225,-0.12661 -0.44689,-0.16101 -0.62209,-0.30743 -0.2572,-0.17052 -0.51692,-0.33581 -0.79317,-0.48621 -0.30448,-0.16048 -0.59002,-0.33191 -0.86105,-0.528 -0.19559,-0.13286 -0.40898,-0.24888 -0.57726,-0.40601 -0.22937,-0.16183 -0.44248,-0.33777 -0.6435,-0.52236 -0.16145,-0.18177 -0.337,-0.35497 -0.48239,-0.54551 -0.15849,-0.20165 -0.2722,-0.42589 -0.25578,-0.66791 -0.009,-0.20196 -0.0199,-0.41003 -0.11271,-0.60012 -0.10805,-0.15322 -0.2437,-0.29704 -0.38288,-0.43139 -0.22515,-0.14764 -0.44995,-0.29299 -0.68842,-0.42657 -0.21093,-0.11564 -0.40616,-0.24195 -0.66598,-0.27671 -0.20574,0.0283 -0.41784,0.004 -0.62569,0.011 -0.23797,10e-4 -0.47591,-10e-4 -0.71383,2.7e-4 -0.24354,-10e-4 -0.48709,10e-4 -0.73063,-0.003 -0.31224,4.2e-4 -0.62447,-0.002 -0.93672,-0.001 -0.29092,-0.004 -0.58188,-0.003 -0.87276,0.004 -0.23865,0.0132 -0.4833,0.0245 -0.69463,0.12509 -1.26814,0.58908 5.04455,-2.40489 2.7166,-1.24993 -0.0853,0.0815 -0.17395,0.20823 -0.27386,0.27556 -0.0355,0.0239 -0.0916,0.0229 -0.1249,0.0487 -0.07,0.0542 -0.0528,0.15999 -0.12983,0.21003 -0.16173,0.2639 -0.38831,0.51116 -0.44464,0.80641 -0.0995,0.29447 -0.22217,0.57873 -0.24822,0.88285 -0.0484,0.2971 -0.17661,0.56059 -0.27327,0.84464 -0.12369,0.37167 -0.25107,0.74367 -0.43851,1.09842 0,0 -3.66372,1.42931 -3.66372,1.42931 z"
       inkscape:connector-curvature="0" />
    <path
       style="opacity:1;vector-effect:none;fill:#333333;fill-opacity:1;stroke:none;stroke-width:1.10881889;stroke-linecap:butt;stroke-linejoin:miter;stroke-miterlimit:4;stroke-dasharray:none;stroke-dashoffset:0;stroke-opacity:1"
       id="path4663"
       d="m 347.50212,402.32834 c -0.17528,0.57544 -0.33532,1.16095 -0.51495,1.73359 -0.12853,0.40615 -0.32008,0.74007 -0.51226,1.08053 -0.0238,0.0532 -0.0435,0.11071 -0.0713,0.15957 -0.0547,0.0962 -0.11105,0.14867 -0.13913,0.275 -0.0122,0.055 -0.006,0.12135 -0.0288,0.16852 -0.0142,0.0291 -0.0462,0.0225 -0.0693,0.0337 -0.0467,0.0592 -0.0399,0.1683 -0.0806,0.23073 -0.019,0.0291 -0.0554,0.0157 -0.078,0.0384 -0.0644,0.0645 -0.072,0.18444 -0.14086,0.25471 0.008,0.1114 -0.11599,0.1138 -0.14423,0.17698 -0.0128,0.0286 -0.006,0.0737 -0.0236,0.0967 -0.15236,0.20281 0.0116,-0.18047 -0.0966,0.10498 -0.10525,0.17389 -0.13828,0.33184 -0.14705,0.55698 0.024,0.28698 -0.01,0.543 -0.0865,0.80489 -0.0458,0.23353 -0.068,0.47281 -0.0764,0.71513 -0.0674,0.71307 -0.0605,1.43199 -0.1242,2.14572 -0.0628,0.67565 -0.0889,1.35919 -0.0818,2.04095 -0.0906,0.76168 -0.14447,1.52669 -0.17802,2.30004 -0.0253,0.93543 -0.0308,1.87157 -0.0128,2.80734 -0.005,0.3493 0.017,0.69822 0.0111,1.04739 0.0185,0.35736 0.26965,0.61201 0.42307,0.85881 0.0774,0.12451 0.14873,0.25689 0.22309,0.38535 0.0816,0.13031 0.16326,0.26064 0.24488,0.39096 0.42355,0.64797 0.86896,1.25883 1.29767,1.89925 0.18199,0.34551 0.48025,0.47311 0.67577,0.77885 0.21434,0.423 0.61655,0.80896 0.92551,1.07739 0.28977,0.21622 0.54302,0.53032 0.83084,0.75053 0.36955,0.28272 -0.0396,-0.0955 0.30409,0.23784 0.0163,0.0186 0.15351,0.18453 0.19065,0.19619 0.0236,0.007 0.0914,-0.0439 0.0701,-0.0272 -4.56755,3.59333 -2.95327,2.45597 -2.19845,1.67233 0.0186,-0.0394 0.0372,-0.0789 0.0558,-0.11834 0,0 2.53468,-1.69394 2.53468,-1.69394 v 0 c -0.0134,0.059 -0.0267,0.1179 -0.0401,0.17686 -0.0312,0.12584 -0.0412,0.25092 -0.12984,0.32231 -1.82639,1.47122 -1.85325,2.78635 -2.81541,1.67728 -0.371,-0.33248 -0.73778,-0.67424 -1.11095,-1.00292 -0.34582,-0.32237 -0.71593,-0.66223 -0.9843,-1.11956 -0.22971,-0.2536 -0.47436,-0.48023 -0.65589,-0.81687 -0.42799,-0.63952 -0.84017,-1.30094 -1.27467,-1.93184 -0.16059,-0.24865 -0.31676,-0.50345 -0.47867,-0.75024 -0.21465,-0.32716 -0.50146,-0.6371 -0.57149,-1.10193 -0.007,-0.35566 0.0138,-0.71122 0.0106,-1.06698 0.0243,-0.95132 0.0326,-1.90319 0.0537,-2.8546 0.0105,-0.74739 -0.008,-1.52377 0.12608,-2.24978 0.0225,-0.70628 0.0348,-1.41478 0.0997,-2.11652 0.0854,-0.68857 0.0663,-1.3748 0.0803,-2.06967 0.0114,-0.26526 0.0186,-0.53595 0.0628,-0.79323 0.0229,-0.26582 0.14965,-0.43617 0.11506,-0.70842 -0.0121,-0.26894 -0.0334,-0.53146 0.0694,-0.77191 0.0627,-0.11718 0.036,-0.0419 0.0535,-0.24214 0.0102,-0.0227 0.0383,0.0281 0.0545,0.015 0.0517,-0.0415 0.0344,-0.25299 0.13945,-0.22127 0.12861,-0.28042 -0.039,0.0339 0.11349,-0.11988 0.21557,-0.21752 -0.20646,0.0639 0.0794,-0.27439 0.25477,-0.30153 -0.0247,0.31732 0.12978,-0.0596 0.055,-0.40033 -0.0329,-0.0637 0.11386,-0.13059 0.0337,-0.0153 0.0856,-0.61449 0.20292,-0.5162 0.14376,-0.39594 0.39755,-0.6485 0.5403,-1.04861 0.20759,-0.53266 0.33393,-1.12008 0.52062,-1.66915 0,0 2.51332,-1.73511 2.51332,-1.73511 z"
       inkscape:connector-curvature="0" />
    <path
       style="opacity:1;vector-effect:none;fill:#333333;fill-opacity:1;stroke:none;stroke-width:1.24598861;stroke-linecap:butt;stroke-linejoin:miter;stroke-miterlimit:4;stroke-dasharray:none;stroke-dashoffset:0;stroke-opacity:1"
       id="path4665"
       d="m 392.3372,402.20249 c 0.0812,0.003 0.16566,-0.0166 0.24362,0.009 0.12725,0.0425 0.23929,0.13026 0.36021,0.19225 0.60703,0.31121 1.2133,0.60496 1.79914,0.96645 0.93209,0.70279 1.77141,1.54029 2.51606,2.48623 0.59067,0.70737 0.98961,1.57243 1.37949,2.43168 0.24086,0.5638 0.43908,1.13968 0.54965,1.75421 0.0763,0.62218 0.0824,1.25169 0.0882,1.87875 0.005,0.54977 -0.004,1.09959 0.003,1.64934 0.001,0.36687 0.008,0.7336 0.005,1.10048 0.0137,0.38772 -0.0857,0.76753 -0.19646,1.13045 -0.0481,0.39803 -0.18689,0.76832 -0.27573,1.1545 -0.13664,0.44919 -0.26043,0.9021 -0.39276,1.35296 -0.0588,0.39788 -0.18778,0.77518 -0.25971,1.16903 -0.0607,0.32486 -0.18882,0.6235 -0.25638,0.94631 -0.0619,0.43749 -0.16725,0.85411 -0.29534,1.27163 -0.13333,0.45002 -0.27561,0.89087 -0.45191,1.32223 -0.098,0.27599 -0.22856,0.53257 -0.34613,0.79774 0,0 -3.24636,1.66575 -3.24636,1.66575 v 0 c 0.12366,-0.26579 0.26799,-0.5189 0.36447,-0.79576 0.18992,-0.4277 0.39312,-0.83906 0.46181,-1.31673 0.1889,-0.35782 0.2385,-0.76888 0.32114,-1.16768 0.0308,-0.33899 0.11347,-0.65498 0.25298,-0.95793 0.067,-0.41092 0.18729,-0.79648 0.26623,-1.20249 0.0861,-0.46678 0.25542,-0.90991 0.37515,-1.36545 0.21299,-0.62638 -0.0972,0.32505 0.0973,-0.43065 0.0592,-0.23024 0.18996,-0.44431 0.18653,-0.69553 0.0496,-0.35191 0.22676,-0.67875 0.22965,-1.04252 -0.003,-0.36972 0.004,-0.73929 0.008,-1.10898 0.009,-0.55081 0.006,-1.10181 0.009,-1.65268 -1e-4,-0.60439 0.004,-1.21139 -0.063,-1.81211 -0.087,-0.58591 -0.2695,-1.12908 -0.48318,-1.67006 -0.35176,-0.84186 -0.72868,-1.67821 -1.29121,-2.36746 -0.71398,-0.91486 -1.53034,-1.72136 -2.44445,-2.37029 -0.71196,-0.40951 -1.57908,-0.95426 -2.3901,-0.94425 0,0 2.87624,-2.37876 2.87624,-2.37876 z"
       inkscape:connector-curvature="0" />
  </g>
  <text
     xml:space="preserve"
     style="font-style:normal;font-weight:normal;font-size:40px;line-height:1.25;font-family:sans-serif;letter-spacing:0px;word-spacing:0px;fill:#000000;fill-opacity:1;stroke:none"
     x="364.12479"
     y="1492.0752"
     id="text4675"><tspan
       x="364.12479"
       y="1527.4658"
       id="tspan4677" /></text>
  <text
     xml:space="preserve"
     style="font-style:normal;font-weight:normal;font-size:40px;line-height:1.25;font-family:sans-serif;letter-spacing:0px;word-spacing:0px;fill:#000000;fill-opacity:1;stroke:none"
     x="519.01636"
     y="1479.675"
     id="text4734"><tspan
       id="tspan4732"
       x="519.01636"
       y="1515.0657" /></text>
  <path
     id="path4750"
     style="color:#000000;font-style:normal;font-variant:normal;font-weight:normal;font-stretch:normal;font-size:medium;line-height:normal;font-family:sans-serif;font-variant-ligatures:normal;font-variant-position:normal;font-variant-caps:normal;font-variant-numeric:normal;font-variant-alternates:normal;font-feature-settings:normal;text-indent:0;text-align:start;text-decoration:none;text-decoration-line:none;text-decoration-style:solid;text-decoration-color:#000000;letter-spacing:normal;word-spacing:normal;text-transform:none;writing-mode:lr-tb;direction:ltr;text-orientation:mixed;dominant-baseline:auto;baseline-shift:baseline;text-anchor:start;white-space:normal;shape-padding:0;clip-rule:nonzero;display:inline;overflow:visible;visibility:visible;opacity:1;isolation:auto;mix-blend-mode:normal;color-interpolation:sRGB;color-interpolation-filters:linearRGB;solid-color:#000000;solid-opacity:1;vector-effect:none;fill:#0c0c0c;fill-opacity:1;fill-rule:nonzero;stroke:none;stroke-width:42.30246353;stroke-linecap:butt;stroke-linejoin:miter;stroke-miterlimit:4;stroke-dasharray:none;stroke-dashoffset:0;stroke-opacity:1;color-rendering:auto;image-rendering:auto;shape-rendering:auto;text-rendering:auto;enable-background:accumulate"
     d="m 886.51399,135.69263 c -243.61847,0 -477.28018,96.78537 -649.54445,269.04964 -172.26427,172.26429 -269.049649,405.92598 -269.049649,649.54443 0,243.6186 96.785379,477.2802 269.049649,649.5445 172.26427,172.2642 405.92598,269.0518 649.54445,269.0518 243.61841,0 477.28241,-96.7876 649.54671,-269.0518 172.2642,-172.2643 269.0496,-405.9259 269.0496,-649.5445 0,-201.84552 -66.4392,-396.85555 -187.2004,-555.77393 -24.9921,-32.88893 -52.3113,-64.23259 -81.8492,-93.7705 C 1363.7965,232.47793 1130.1324,135.69263 886.51399,135.69263 Z m 0,42.30134 c 84.92861,0 168.58421,12.32818 248.57451,35.99233 138.9107,41.09507 266.7693,116.37886 371.0582,220.6678 65.9225,65.92247 120.2565,141.26242 161.691,222.85895 61.8603,121.82091 94.969,257.58671 94.969,396.77365 0,232.4155 -92.3175,455.2902 -256.66,619.6327 -164.3426,164.3425 -387.2172,256.66 -619.63271,256.66 -232.41541,0 -455.2901,-92.3175 -619.63262,-256.66 C 102.53885,1509.5769 10.22123,1286.7022 10.22123,1054.2867 c 0,-232.41538 92.31762,-455.29008 256.66014,-619.6326 C 431.22389,270.31162 654.09858,177.99397 886.51399,177.99397 Z"
     inkscape:connector-curvature="0" />
  <g
     transform="matrix(2.115123,0,0,2.115123,-43.89908,-1.029657)"
     id="layer7"
     style="display:inline">
    <g
       id="g4758"
       transform="matrix(0.42738532,0,0,0.42738532,23.735369,41.516342)">
      <path
         id="path4667"
         d="m 758.40007,376.50811 c 0,0 -178.58351,6.9578 -222.64957,269.03488 -44.06605,262.07709 44.06606,442.97981 69.57799,459.21471 25.51193,16.2349 -60.30092,143.7945 -30.15046,104.367 30.15046,-39.4275 -257.43855,-331.65508 -171.6257,-621.56336 85.81285,-289.90829 153.07157,-317.73948 269.03488,-310.78168 115.96332,6.9578 23.19267,-37.10826 85.81286,99.72845 z"
         style="opacity:1;vector-effect:none;fill:#241c1c;fill-opacity:1;stroke:#000000;stroke-width:1px;stroke-linecap:butt;stroke-linejoin:miter;stroke-miterlimit:4;stroke-dasharray:none;stroke-dashoffset:0;stroke-opacity:1"
         inkscape:connector-curvature="0" />
      <path
         id="path4669"
         d="m 758.40007,376.50811 c 0,0 -139.15598,-127.55965 -69.57799,-199.4569 62.48247,-64.56521 250.27846,-112.297264 435.73732,100.34786 21.0608,24.14803 42.0914,51.65387 62.9049,82.87417 204.0954,306.14319 245.8422,568.22024 269.0349,818.70096 23.1927,250.4808 -51.0238,343.2514 134.5175,327.0166 185.5413,-16.2349 -296.8661,259.7578 -296.8661,259.7578 0,0 -788.55056,454.5762 -626.20192,55.6624 162.34864,-398.9138 373.40182,-827.97807 373.40182,-827.97807 0,0 71.8973,-454.57618 -190.17979,-572.85876 -380.53808,-171.74729 -92.77064,-44.06606 -92.77064,-44.06606 z"
         style="opacity:1;vector-effect:none;fill:#241c1c;fill-opacity:1;stroke:#000000;stroke-width:1px;stroke-linecap:butt;stroke-linejoin:miter;stroke-miterlimit:4;stroke-dasharray:none;stroke-dashoffset:0;stroke-opacity:1"
         inkscape:connector-curvature="0"
         sodipodi:nodetypes="cssssscscsc" />
    </g>
  </g>
  <g
     transform="matrix(2.115123,0,0,2.115123,-43.89908,-1.029657)"
     id="layer8"
     style="display:inline;fill:#ffffff;fill-opacity:1;stroke:#feffff;stroke-width:2;stroke-miterlimit:4;stroke-dasharray:none;stroke-opacity:0.9898477">
    <g
       style="fill:#ffffff;fill-opacity:1;stroke:#feffff;stroke-width:4.67961788;stroke-miterlimit:4;stroke-dasharray:none;stroke-opacity:0.9898477"
       id="g4748"
       transform="matrix(0.42738532,0,0,0.42738532,-16.155962,146.6844)">
      <path
         style="font-style:normal;font-variant:normal;font-weight:normal;font-stretch:normal;font-size:40px;line-height:1.25;font-family:Zapfino;-inkscape-font-specification:Zapfino;letter-spacing:0px;word-spacing:0px;fill:#ffffff;fill-opacity:1;stroke:#feffff;stroke-width:3.68779254;stroke-miterlimit:4;stroke-dasharray:none;stroke-opacity:0.9898477"
         d="m 1229.4707,764.80078 c -28.1718,0 -52.3187,0.44975 -72.4414,1.3457 -19.6756,0.89596 -36.4443,2.23934 -50.3066,4.03125 -13.8624,1.34394 -25.2656,2.91121 -34.209,4.70313 -8.9435,1.79192 -16.769,3.80893 -23.4766,6.04883 -18.7812,6.2717 -31.7495,14.11002 -38.9043,23.51758 -7.1547,8.95958 -10.73241,17.02374 -10.73241,24.1914 0,8.5116 1.11761,14.78264 3.35351,18.81445 2.683,4.03182 5.1431,6.72052 7.3789,8.06446 1.7887,0 2.2362,-0.67169 1.3418,-2.01563 -0.8943,-2.68787 -1.3418,-5.82437 -1.3418,-9.4082 0,-10.30352 2.9055,-19.71106 8.7188,-28.22266 6.2604,-8.5116 13.193,-14.78264 20.7949,-18.81445 7.6019,-4.03181 16.3204,-7.6161 26.1582,-10.75195 9.8378,-3.13586 20.1233,-5.82456 30.8555,-8.06446 10.7321,-2.23989 21.4651,-3.80716 32.1972,-4.70312 10.7321,-1.34394 20.793,-2.01563 30.1836,-2.01563 2.683,0 4.0254,0.89559 4.0254,2.6875 0,1.79192 -0.2247,3.1353 -0.6719,4.03125 -4.9189,10.7515 -10.9546,23.29554 -18.1093,37.63086 -7.1548,13.88735 -14.7576,28.44645 -22.8067,43.67774 -8.0491,15.23128 -16.3221,30.46207 -24.8183,45.69336 -8.4963,14.7833 -16.5446,28.67072 -24.1465,41.66211 -16.9926,28.67065 -33.5386,54.6543 -49.6367,77.9492 -15.6511,22.8469 -31.30216,42.1098 -46.95317,57.7891 -17.43971,17.4712 -34.20845,29.3435 -50.30664,35.6152 -15.65102,6.7197 -32.86722,10.0781 -51.64844,10.0781 -21.46425,0 -36.89064,-4.2559 -46.28125,-12.7675 -9.83778,-8.0637 -15.65272,-17.919 -17.44141,-29.5664 l -4.69531,1.3437 c -0.44717,6.2717 -0.66992,12.0969 -0.66992,17.4727 -0.44717,5.8237 -0.66992,10.3036 -0.66992,13.4394 -0.44717,3.1359 -0.002,5.1509 1.33984,6.0469 0.89435,1.3439 2.45945,2.4634 4.69531,3.3594 14.3095,5.8237 31.52571,8.7363 51.64844,8.7363 18.78122,0 35.77467,-2.2409 50.97852,-6.7207 15.20384,-4.4798 29.28982,-10.3031 42.25781,-17.4707 3.33896,-1.784 6.60814,-3.6378 9.80859,-5.5606 6.22488,-9.1469 13.08213,-17.708 20.58594,-25.6679 8.14268,-8.3398 16.28501,-15.3758 24.42771,-21.1094 8.469,-6.1139 17.7374,-11.1146 27.7832,-15.0332 4.5572,-5.2434 9.2153,-11.0015 13.9825,-17.2969 10.2849,-13.4394 19.0054,-25.9834 26.1601,-37.63084 10.7321,-17.02321 21.2404,-34.26906 31.5254,-51.74024 10.285,-17.91916 20.5705,-36.28644 30.8555,-55.10156 10.2849,-19.2631 20.7932,-38.74986 31.5254,-58.46094 10.7321,-20.15905 20.7929,-36.28738 30.1836,-48.38281 2.2358,-2.68787 4.4731,-4.25515 6.7089,-4.70313 2.2359,-0.89595 5.1414,-1.34375 8.7188,-1.34375 h 4.6953 c 2.2359,0 4.6959,0.2239 7.3789,0.67188 1.7887,0 2.6836,-0.89558 2.6836,-2.6875 0,-1.79192 -0.8949,-2.91335 -2.6836,-3.36133 z m -191.7344,280.03712 c -4.8472,5.5771 -9.5798,10.57 -14.1894,14.957 -9.8378,9.4076 -20.3461,18.5912 -31.52542,27.5508 -8.39683,7.0661 -17.42381,13.5003 -27.08203,19.3027 -0.29705,0.4365 -0.60039,0.8675 -0.89453,1.3067 -6.45798,9.6428 -11.79217,19.6769 -16.0039,30.1015 -3.93095,10.4247 -5.89649,20.5888 -5.89649,30.4922 0,8.861 1.68335,16.289 5.05274,22.2832 3.36938,5.7336 7.86287,10.4237 13.47851,14.0723 5.89642,3.388 12.49459,5.734 19.79492,7.0371 7.58112,1.5637 15.44326,2.3457 23.5859,2.3457 25.2704,0 48.4355,-5.082 69.4942,-15.2461 1.4776,-0.7218 2.9299,-1.4665 4.3672,-2.2246 23.6686,-22.0043 39.5444,-36.0351 47.5937,-42.0586 0.1992,-0.1336 0.4203,-0.2629 0.6348,-0.3945 0.3271,-0.6143 0.6278,-1.2275 0.8926,-1.8418 0.8423,-1.5637 1.2636,-3.3897 1.2636,-5.4746 0,-3.6487 -0.5624,-5.4727 -1.6855,-5.4727 -0.5616,0 -1.2631,0.522 -2.1055,1.5645 -17.4085,22.1524 -35.7999,39.0925 -55.1738,50.8203 -19.374,11.4671 -40.8538,17.2012 -64.4395,17.2012 -5.6156,0 -11.09089,-0.392 -16.42574,-1.1739 -5.33486,-1.0424 -10.10859,-2.7365 -14.32032,-5.082 -3.93094,-2.3456 -7.15851,-5.6036 -9.68554,-9.7734 -2.52704,-4.1699 -3.79102,-9.512 -3.79102,-16.0274 0,-11.9884 2.526,-24.2365 7.58008,-36.7461 5.33486,-12.7702 11.93498,-24.7602 19.79687,-35.9668 7.8619,-11.4671 16.14337,-21.7612 24.84767,-30.8828 8.985,-9.1216 16.9883,-16.0276 24.0078,-20.7187 6.1772,-4.1699 12.7754,-7.6879 19.7949,-10.5547 7.0196,-3.1274 14.6015,-4.6914 22.7442,-4.6914 10.1081,0 18.2505,1.042 24.4277,3.1269 6.458,2.085 11.5119,4.8229 15.1621,8.211 3.931,3.388 6.5981,7.166 8.002,11.3359 1.4039,4.1699 2.1054,8.2099 2.1054,12.1191 0,2.085 -0.2802,4.561 -0.8418,7.4278 -0.2807,2.6061 -0.7021,4.5602 -1.2636,5.8633 l 3.791,-1.1719 c 1.9655,-5.2124 4.4915,-11.0764 7.5801,-17.5918 3.0886,-6.7761 5.6165,-11.7281 7.582,-14.8555 0,-2.0849 -1.1229,-3.6489 -3.3692,-4.6914 -8.985,-4.9517 -18.8127,-8.3397 -29.4824,-10.1641 -10.3889,-2.0849 -20.6379,-3.1269 -30.7461,-3.1269 -13.4775,0 -26.3936,2.214 -38.748,6.6445 -2.0034,0.6762 -3.9658,1.4096 -5.9102,2.168 z m 88.4102,109.5254 c -0.3668,0.6888 -0.7677,1.3776 -1.2129,2.0664 -12.0216,16.7374 -27.6967,30.1968 -47.0156,40.3867 -7.7492,7.2043 -16.3187,15.2487 -25.7422,24.166 -38.206,35.8062 -88.39298,84.8225 -150.55861,147.0488 -6.79937,6.9527 -12.30259,13.0356 -16.51172,18.25 -3.88535,4.8669 -5.99068,10.4302 -6.31445,16.6876 l 2.91406,26.0722 c 1.29512,1.0429 2.2665,0.5214 2.91406,-1.5644 0.64756,-5.9098 1.45835,-10.7776 2.42969,-14.6016 1.29512,-3.4763 3.23594,-7.473 5.82617,-11.9922 8.41826,-13.21 20.88374,-29.724 37.39648,-49.539 16.83653,-19.8151 37.55879,-41.7145 62.16602,-65.7012 4.53291,0.6952 11.3326,1.2168 20.3984,1.5644 h 27.6836 c 9.0659,0 16.8369,0.1739 23.3125,0.5215 6.4756,0.3476 10.8469,0.8692 13.1133,1.5645 6.4756,1.7381 11.3306,4.6917 14.5684,8.8632 3.5615,3.824 5.3437,7.6487 5.3437,11.4727 0,2.0858 -0.4857,6.604 -1.457,13.5566 -0.9713,6.6051 -2.1053,13.733 -3.4004,21.3809 -0.9713,7.6479 -1.9427,14.9477 -2.9141,21.9004 -0.9713,6.605 -1.6195,10.9494 -1.9433,13.0352 1.6189,6.9526 4.8581,10.4296 9.7148,10.4296 3.2378,-0.6952 6.9608,-1.5645 11.1699,-2.6074 4.533,-1.3905 8.9042,-2.7813 13.1133,-4.1719 4.5329,-1.3905 8.4185,-2.6074 11.6563,-3.6503 3.5615,-1.0429 5.99,-1.7364 7.2851,-2.084 2.5903,-0.6953 3.7222,-1.5646 3.3985,-2.6075 0,-1.0429 -1.2946,-1.2167 -3.8848,-0.5214 -2.5902,0.6952 -5.0187,1.3906 -7.2852,2.0859 -2.2664,0.3476 -4.2092,0.5215 -5.8281,0.5215 -0.9713,0 -2.2658,-0.1739 -3.8847,-0.5215 -1.6189,-0.3476 -3.2386,-1.2169 -4.8575,-2.6074 -1.6189,-1.7382 -3.0759,-4.1721 -4.3711,-7.3008 -0.9713,-3.4763 -1.457,-8.1703 -1.457,-14.0801 0.3238,-3.8239 0.972,-10.4283 1.9434,-19.8144 1.2951,-9.7338 2.9147,-20.5106 4.8574,-32.3301 1.9427,-12.1672 3.8854,-24.6825 5.8281,-37.5449 2.2665,-13.2101 4.3698,-25.3758 6.3125,-36.5 l 4.8574,-28.6797 c 1.6189,-7.9956 2.5903,-12.6896 2.9141,-14.0801 0.6476,-4.5192 1.9421,-10.0805 3.8848,-16.6855 1.9426,-6.9527 4.5337,-13.0375 7.7714,-18.252 0.6476,-1.3905 0.8082,-2.7794 0.4844,-4.1699 0,-1.7382 -0.9714,-1.5643 -2.914,0.5215 -1.9427,2.0858 -5.5032,3.8223 -10.6836,5.2129 -4.7822,1.2836 -8.4466,2.7189 -11.0215,4.2988 z m -6.2656,13.3574 c 0.1113,0.01 0.2081,0.031 0.289,0.074 0.6476,0 0.6476,1.3908 0,4.1719 -0.3238,1.3905 -1.2951,6.6041 -2.914,15.6426 -1.2952,8.6908 -2.9148,18.9461 -4.8575,30.7656 l -5.8281,35.459 c -1.9427,11.8195 -3.5623,21.2055 -4.8574,28.1582 -0.6476,2.4334 -1.2939,3.8242 -1.9414,4.1719 -0.3238,0 -2.106,-0.5216 -5.3438,-1.5645 -2.5902,-0.6953 -7.122,-1.043 -13.5976,-1.043 -6.4756,-0.3476 -14.8949,-0.5214 -25.2559,-0.5214 h -14.5683 c -5.8281,0 -11.4958,-0.1739 -17,-0.5215 -5.1805,-0.3477 -9.7123,-1.0431 -13.5977,-2.086 -3.8853,-1.0429 -5.9907,-2.6075 -6.3144,-4.6933 4.2091,-5.2145 9.7143,-11.2974 16.5136,-18.25 6.7994,-6.9527 14.0848,-14.0806 21.8555,-21.3809 8.0945,-7.6479 16.1887,-15.1216 24.2832,-22.4219 8.4183,-7.6479 16.0268,-14.6 22.8262,-20.8574 7.1231,-6.2574 12.9514,-11.2991 17.4843,-15.123 4.533,-4.1716 7.2846,-6.6036 8.2559,-7.2989 2.2665,-1.825 3.7893,-2.7196 4.5684,-2.6816 z"
         transform="matrix(1.2689483,0,0,1.2689483,-47.578675,-289.22041)"
         id="flowRoot4681"
         inkscape:connector-curvature="0" />
      <text
         id="text4549"
         y="1577.8527"
         x="2073.8706"
         style="font-style:normal;font-weight:normal;font-size:93.59236145px;line-height:1.25;font-family:sans-serif;letter-spacing:0px;word-spacing:0px;fill:#ffffff;fill-opacity:1;stroke:#feffff;stroke-width:4.67961788;stroke-miterlimit:4;stroke-dasharray:none;stroke-opacity:0.9898477"
         xml:space="preserve"><tspan
           style="fill:#ffffff;fill-opacity:1;stroke:#feffff;stroke-width:4.67961788;stroke-miterlimit:4;stroke-dasharray:none;stroke-opacity:0.9898477"
           y="1660.6599"
           x="2073.8706"
           id="tspan4547" /></text>
    </g>
  </g>
</svg>
